# xmcd
#
# Track frame offsets: 
#        183
#        15020
#        31823
#        44243
#        57623
#        70603
#        84535
#        99540
#        114618
#        125120
#        136180
#        149868
#        162380
#        174533
#        186248
#        203943
#        217243
#        228253
#        242260
#        253908
#        285068
#
# Disc length: 4440 seconds
#
# Revision: 0
# Processed by: cddbd v1.5.1PL0 Copyright (c) Steve Scherf et al.
# Submitted via: ExactAudioCopy v0.95b2
#
DISCID=38115615
DTITLE=Glen Campbell - The Essential
DYEAR=2003
DGENRE=Country
TTITLE0=Rhinestone Cowboy
TTITLE1=Both Sides Now
TTITLE2=By The Time I Get To Phoenix
TTITLE3=Gentle On My Mind
TTITLE4=Too Many Mornings
TTITLE5=Wichita Lineman
TTITLE6=One Last Time
TTITLE7=Don't Pull Your Love - Then You Can Tell Me Goodbye
TTITLE8=Reason To Believe
TTITLE9=It's Only Make Believe
TTITLE10=Honey Come Back
TTITLE11=Give Me Back That Old Familiar Feeling
TTITLE12=Galveston
TTITLE13=Dreams Of The Everyday Housewife
TTITLE14=The Last Thing On My Mind
TTITLE15=Where's The Playground Susie
TTITLE16=Try A Little Kindness
TTITLE17=Country Boy (You Got Your Feet In L.A.)
TTITLE18=All I Have To Do Is Dream
TTITLE19=Amazing Grace
TTITLE20=Data
EXTD=
EXTT0=
EXTT1=
EXTT2=
EXTT3=
EXTT4=
EXTT5=
EXTT6=
EXTT7=
EXTT8=
EXTT9=
EXTT10=
EXTT11=
EXTT12=
EXTT13=
EXTT14=
EXTT15=
EXTT16=
EXTT17=
EXTT18=
EXTT19=
EXTT20=
PLAYORDER=
